<?xml version="1.0" encoding="UTF-8"?>
<svg id="Layer_1" data-name="Layer 1" xmlns="http://www.w3.org/2000/svg" viewBox="0 0 428.63 468.6">
  <defs>
    <style>
      .cls-1 {
        fill: #fff;
      }

      .cls-2 {
        fill: #020202;
      }
    </style>
  </defs>
  <path class="cls-2" d="M407.42,407.9H18.89l18.07-84.35,11.42-138.69C49.33,94.8,122.88,21.83,213.16,21.83s163.83,72.97,164.77,163.03l11.42,138.69,18.07,84.35Zm-320.54-50h252.55l-11.49-169.64v-1.64c0-46.75-68.03-104.78-114.78-104.78s-114.78,58.03-114.78,104.78v1.64l-11.49,169.64Z"/>
  <g>
    <path class="cls-1" d="M243.38,398.38c0,16.69-13.53,30.23-30.23,30.23s-30.23-13.53-30.23-30.23h60.45Z"/>
    <path class="cls-2" d="M213.16,468.6c-38.72,0-70.23-31.5-70.23-70.23v-40h140.45v40c0,38.72-31.5,70.23-70.23,70.23Zm-9.77-70.23h19.55c0-5.39-4.38-9.77-9.77-9.77s-9.77,4.38-9.77,9.77Z"/>
  </g>
  <polygon class="cls-2" points="27.38 110.53 0 88.97 54.4 15.15 80.78 36.71 27.38 110.53"/>
  <polygon class="cls-2" points="401.25 117.22 428.63 95.66 374.23 21.83 347.85 43.39 401.25 117.22"/>
  <path class="cls-2" d="M254.99,41.83c0,23.1-18.73,31.83-41.83,31.83s-41.83-8.73-41.83-31.83S190.05,0,213.16,0s41.83,18.73,41.83,41.83Z"/>
</svg>