<?xml version="1.0" encoding="UTF-8"?>
<svg id="Layer_1" data-name="Layer 1" xmlns="http://www.w3.org/2000/svg" viewBox="0 0 498.44 498.44">
  <defs>
    <style>
      .cls-1 {
        fill: none;
        stroke: #000;
        stroke-miterlimit: 10;
        stroke-width: 40px;
      }
    </style>
  </defs>
  <path d="M268.03,366.29c-6.03,12.51-11.74,24.37-17.45,36.23-.53,.03-1.05,.06-1.58,.09-5.69-11.91-11.39-23.82-17.15-35.87q9.13-2.77,9.15-11.97c0-24.13-.01-48.25-.03-72.38,0-1.66,0-3.33-.12-4.99-.22-3.42-1.99-4.53-4.98-2.83-3.02,1.72-5.87,3.73-8.78,5.64-22.05,14.52-44.1,29.04-66.15,43.57-5.23,3.44-5.24,3.56-1.95,12.02-13.72,2.48-27.3,4.94-40.88,7.4l-.8-1.28c7.08-11.27,14.15-22.54,21.27-33.88,7.23,5.97,7.29,6.06,14.88,1.06,24.82-16.34,49.62-32.72,74.38-49.15,6.51-4.32,6.35-5.74-.22-10.06-24.29-15.97-48.54-31.99-72.78-48.04-8.25-5.46-8.21-5.53-15.99,.21-7.19-11.44-14.35-22.84-22.26-35.42,15.2,2.77,28.89,5.27,42.74,7.79-3.46,8.56-3.33,8.37,4.67,13.62,23.33,15.28,46.54,30.75,69.84,46.07,1.58,1.04,3.54,1.49,5.32,2.22,.57-1.97,1.64-3.93,1.65-5.9,.14-31.28-.04-62.56,.31-93.84,.07-6.51-3.56-7.21-9.64-7.19,6.15-12.9,11.83-24.8,17.5-36.7,.53,0,1.06,0,1.59,0,5.69,11.85,11.38,23.69,17.16,35.73-.73,.47-1.22,1.01-1.78,1.1q-7.65,1.18-7.65,8.82c.04,30.61,.07,61.23,.2,91.84,0,2,.9,4.01,1.38,6.01,1.97-.59,4.22-.75,5.87-1.83,24.75-16.16,49.41-32.46,74.13-48.66,4.79-3.14,2.14-6.47-.17-10.85,14.17-2.56,27.8-5.03,41.43-7.5,.25,.37,.51,.74,.76,1.12-7.07,11.29-14.14,22.58-21.11,33.7-.96-.24-1.37-.22-1.57-.41-5.56-5.71-5.52-5.66-12.22-1.23-24.93,16.49-49.88,32.94-74.84,49.39-5.24,3.45-5.41,5.74-.26,9.14,24.38,16.12,48.85,32.11,73.18,48.31,5.25,3.5,6.88-1.37,10.4-4.19,7.2,11.45,14.25,22.68,21.3,33.9-.27,.43-.54,.87-.81,1.3-2.64-.49-5.26-1.01-7.91-1.45-9.48-1.58-18.97-3.18-28.46-4.69-3.45-.55-5.5-1.38-2.79-5.34,2.39-3.48-.32-5.45-2.92-7.18-14.52-9.63-29.03-19.27-43.57-28.86-8.45-5.58-16.92-11.13-25.46-16.58-4.78-3.05-6.44-2.1-6.45,3.69-.07,26.95,.03,53.91-.16,80.86-.04,4.92,1.47,7.24,6.55,6.71,.75-.08,1.55,.32,3.22,.71Z"/>
  <circle class="cls-1" cx="249.22" cy="249.22" r="229.22"/>
</svg>